<svg width="32" height="32" viewBox="0 0 32 32" fill="none" xmlns="http://www.w3.org/2000/svg">
<path fill-rule="evenodd" clip-rule="evenodd" d="M16 29C10.3427 29 7.51467 29 5.75733 27.0223C4 25.0472 4 21.8639 4 15.5C4 9.1361 4 5.95415 5.75733 3.9764C7.51467 1.99865 10.344 2 16 2C21.656 2 24.4853 2 26.2427 3.9764C28 5.9555 28 9.1361 28 15.5C28 21.8639 28 25.0459 26.2427 27.0223C24.4853 28.9986 21.656 29 16 29ZM20 7.4H12C11.38 7.4 11.0707 7.4 10.816 7.46885C10.4772 7.56091 10.1682 7.7416 9.92012 7.99277C9.67204 8.24395 9.49359 8.55677 9.40267 8.89985C9.33333 9.1604 9.33333 9.4736 9.33333 10.1C9.33333 10.7264 9.33333 11.0409 9.40133 11.2988C9.49226 11.6419 9.67071 11.9547 9.91879 12.2059C10.1669 12.4571 10.4758 12.6377 10.8147 12.7298C11.072 12.8 11.3813 12.8 12 12.8H20C20.62 12.8 20.9293 12.8 21.184 12.7312C21.5228 12.6391 21.8318 12.4584 22.0799 12.2072C22.328 11.9561 22.5064 11.6432 22.5973 11.3001C22.6667 11.0396 22.6667 10.7264 22.6667 10.1C22.6667 9.4736 22.6667 9.15905 22.5987 8.9012C22.5077 8.55812 22.3293 8.2453 22.0812 7.99412C21.8331 7.74295 21.5242 7.56226 21.1853 7.4702C20.9293 7.4 20.6187 7.4 20 7.4ZM12 16.85C12 17.208 11.8595 17.5514 11.6095 17.8046C11.3594 18.0578 11.0203 18.2 10.6667 18.2C10.313 18.2 9.97391 18.0578 9.72386 17.8046C9.47381 17.5514 9.33333 17.208 9.33333 16.85C9.33333 16.492 9.47381 16.1486 9.72386 15.8954C9.97391 15.6422 10.313 15.5 10.6667 15.5C11.0203 15.5 11.3594 15.6422 11.6095 15.8954C11.8595 16.1486 12 16.492 12 16.85ZM16 18.2C16.3536 18.2 16.6928 18.0578 16.9428 17.8046C17.1929 17.5514 17.3333 17.208 17.3333 16.85C17.3333 16.492 17.1929 16.1486 16.9428 15.8954C16.6928 15.6422 16.3536 15.5 16 15.5C15.6464 15.5 15.3072 15.6422 15.0572 15.8954C14.8071 16.1486 14.6667 16.492 14.6667 16.85C14.6667 17.208 14.8071 17.5514 15.0572 17.8046C15.3072 18.0578 15.6464 18.2 16 18.2ZM22.6667 16.85C22.6667 17.208 22.5262 17.5514 22.2761 17.8046C22.0261 18.0578 21.687 18.2 21.3333 18.2C20.9797 18.2 20.6406 18.0578 20.3905 17.8046C20.1405 17.5514 20 17.208 20 16.85C20 16.492 20.1405 16.1486 20.3905 15.8954C20.6406 15.6422 20.9797 15.5 21.3333 15.5C21.687 15.5 22.0261 15.6422 22.2761 15.8954C22.5262 16.1486 22.6667 16.492 22.6667 16.85ZM21.3333 23.6C21.687 23.6 22.0261 23.4578 22.2761 23.2046C22.5262 22.9514 22.6667 22.608 22.6667 22.25C22.6667 21.892 22.5262 21.5486 22.2761 21.2954C22.0261 21.0422 21.687 20.9 21.3333 20.9C20.9797 20.9 20.6406 21.0422 20.3905 21.2954C20.1405 21.5486 20 21.892 20 22.25C20 22.608 20.1405 22.9514 20.3905 23.2046C20.6406 23.4578 20.9797 23.6 21.3333 23.6ZM17.3333 22.25C17.3333 22.608 17.1929 22.9514 16.9428 23.2046C16.6928 23.4578 16.3536 23.6 16 23.6C15.6464 23.6 15.3072 23.4578 15.0572 23.2046C14.8071 22.9514 14.6667 22.608 14.6667 22.25C14.6667 21.892 14.8071 21.5486 15.0572 21.2954C15.3072 21.0422 15.6464 20.9 16 20.9C16.3536 20.9 16.6928 21.0422 16.9428 21.2954C17.1929 21.5486 17.3333 21.892 17.3333 22.25ZM10.6667 23.6C11.0203 23.6 11.3594 23.4578 11.6095 23.2046C11.8595 22.9514 12 22.608 12 22.25C12 21.892 11.8595 21.5486 11.6095 21.2954C11.3594 21.0422 11.0203 20.9 10.6667 20.9C10.313 20.9 9.97391 21.0422 9.72386 21.2954C9.47381 21.5486 9.33333 21.892 9.33333 22.25C9.33333 22.608 9.47381 22.9514 9.72386 23.2046C9.97391 23.4578 10.313 23.6 10.6667 23.6Z" fill="#AF52DE"/>
</svg>
